<svg width="62" height="56" viewBox="0 0 62 56" fill="none" xmlns="http://www.w3.org/2000/svg">
<path d="M57.9823 30.7257C57.1151 29.9823 57.239 28.7434 58.1062 28.1239C59.2213 27.2567 59.8407 26.1416 59.8407 24.531C59.7168 22.0531 57.4868 21.1858 55.5045 21.1858H41.6283C40.6372 21.1858 39.8938 20.3186 40.0177 19.3274C40.3894 15.9823 41.1328 8.92037 40.7611 7.68144C40.3894 6.19471 40.0177 2.72566 36.4248 2.23008C35.5576 2.10619 34.6903 2.72563 34.5664 3.59288L33.2036 11.0265C33.2036 11.2743 33.0797 11.3982 32.9558 11.5221L22.9204 28.9911C22.7965 29.2389 22.6726 29.4867 22.6726 29.8584V47.0796V51.292C22.6726 51.9115 23.0443 52.5309 23.6637 52.7787C24.2832 53.0265 25.2744 53.2743 26.885 53.2743H50.0531C50.177 53.2743 50.177 53.2743 50.3009 53.2743C50.7965 53.1504 52.9027 52.7787 53.3982 50.6725C53.646 49.5575 53.5222 48.5664 53.1505 47.6991C52.6549 46.708 53.2744 45.469 54.3894 45.3451C55.8761 45.0973 56.7434 44.6017 57.1151 43.115C57.4867 41.5044 57.4868 40.5132 56.8673 39.5221C56.3717 38.7787 56.6195 37.6637 57.4868 37.1681C58.9735 36.4248 59.7168 35.3097 59.5929 33.9469C59.7168 32.7079 58.9735 31.5929 57.9823 30.7257Z" fill="#FFEBB6"/>
<path d="M38.9027 7.18583C39.1505 8.42477 38.531 15.4867 38.1593 18.8319C38.0354 19.823 38.7788 20.6903 39.7699 20.6903H40.2655C40.0177 20.3186 39.8938 19.9469 39.8938 19.4513C40.2655 16.1062 41.0089 9.04424 40.6372 7.8053C40.2655 6.31857 39.8938 2.84952 36.4248 2.35394C38.2832 3.59288 38.6549 5.94689 38.9027 7.18583Z" fill="#D4C499"/>
<path d="M57.9824 30.7256C57.1151 29.9823 57.239 28.7434 58.1063 28.1239C59.2213 27.2567 59.8408 26.1416 59.8408 24.531C59.7169 22.4248 58.2302 21.5575 56.6195 21.3098C57.4868 21.8053 57.9824 22.6726 58.1063 23.9115C58.2302 25.5221 57.6107 26.6372 56.3718 27.5044C55.5045 28.1239 55.5045 29.3628 56.2479 30.1062C57.239 30.9734 57.8585 32.0885 57.9824 33.3274C58.1063 34.8141 57.239 35.8053 55.8762 36.5487C55.0089 37.0442 54.7611 38.0354 55.2567 38.9026C55.8762 39.8938 55.8762 40.8849 55.5045 42.4956C55.1328 43.9823 54.2655 44.6017 52.7788 44.7256C51.6638 44.8495 51.0443 46.0885 51.5399 47.0796C51.9116 47.9469 52.1594 48.938 51.7877 50.053C51.2921 52.0353 49.1859 52.531 48.6903 52.6549C48.5664 52.6549 48.5664 52.6549 48.4425 52.6549H25.2744C24.5311 52.6549 23.9116 52.6548 23.416 52.5309C23.5399 52.6548 23.6638 52.7787 23.7877 52.7787C24.4072 53.0265 25.3983 53.2743 27.0089 53.2743H50.1771C50.301 53.2743 50.3009 53.2743 50.4248 53.2743C50.9204 53.1504 53.0266 52.7787 53.5222 50.6725C53.77 49.5575 53.6461 48.5664 53.2744 47.6991C52.7788 46.708 53.3983 45.469 54.5134 45.3451C56.0001 45.0973 56.8673 44.6018 57.239 43.115C57.6107 41.5044 57.6107 40.5132 56.9912 39.5221C56.4957 38.7787 56.7435 37.6637 57.6107 37.1681C59.0974 36.4248 59.8408 35.3097 59.7169 33.9469C59.7169 32.7079 58.9735 31.5929 57.9824 30.7256Z" fill="#D4C499"/>
<path d="M23.9114 49.8053V32.5841C23.9114 32.3363 24.0353 31.9646 24.1592 31.7168L34.1946 14.2478C34.3185 14.1239 34.3185 13.8761 34.4424 13.7522L35.8052 6.31856C35.9291 5.4513 36.7964 4.83187 37.6636 4.95576C39.0265 5.07965 39.8937 5.823 40.5132 6.56636C40.1415 4.95574 39.1504 2.84957 36.5486 2.47788C35.6813 2.35399 34.8141 2.97343 34.6902 3.84069L33.3274 11.2743C33.3274 11.5221 33.2034 11.646 33.0796 11.7699L23.0442 29.2389C22.9203 29.4867 22.7964 29.7345 22.7964 30.1062V47.3274V51.5398C22.7964 52.1593 23.1681 52.7787 23.7875 53.0265H23.9114V49.8053Z" fill="white"/>
<path d="M59.9645 29.4867C61.4512 28.1239 62.0707 26.5133 61.9468 24.4071C61.699 21.062 59.2211 18.9557 55.3804 18.9557H42.1238C43.2388 9.04423 42.8672 7.80529 42.7433 7.18582C42.7433 7.06193 42.7433 6.93805 42.6194 6.81416C42.2477 5.07964 41.3804 0.619469 36.5486 0C36.4247 0 36.1769 0 36.053 0C34.1946 0 32.584 1.3628 32.2123 3.22121L30.9734 10.531L20.938 27.8761C20.5663 28.4956 20.4424 29.115 20.4424 29.8584V47.0796V51.292C20.4424 52.7787 21.4335 54.2655 22.7964 54.7611C23.7875 55.2566 25.1503 55.3805 26.8848 55.3805H50.053C50.3008 55.3805 50.4247 55.3805 50.6725 55.3805C52.6548 55.1327 54.8848 53.7699 55.6282 51.1681C55.9999 49.9292 55.876 48.5664 55.5043 47.3274C57.6105 46.8319 58.8494 45.5929 59.345 43.6106C59.7167 42.1239 59.9645 40.5132 59.0972 38.7787C61.5751 37.1681 61.9468 35.1858 61.8229 33.6991C61.9468 32.2124 61.2034 30.7256 59.9645 29.4867ZM57.9822 30.7256C58.9733 31.5929 59.5928 32.7079 59.7167 33.9468C59.8406 35.4336 58.9733 36.4248 57.6105 37.1681C56.7433 37.6637 56.4955 38.6548 56.991 39.5221C57.6105 40.5132 57.6105 41.5044 57.2388 43.115C56.8671 44.6017 55.9999 45.2212 54.5132 45.3451C53.3981 45.469 52.7787 46.708 53.2742 47.6991C53.6459 48.5664 53.8937 49.5575 53.522 50.6725C53.0264 52.6548 50.9202 53.1504 50.4247 53.2743C50.3008 53.2743 50.3008 53.2743 50.1769 53.2743H27.0087C25.3981 53.2743 24.407 53.0265 23.7875 52.7787C23.168 52.5309 22.7964 51.9114 22.7964 51.292V47.0796V29.8584C22.7964 29.6106 22.9202 29.2389 23.0441 28.9911L33.0795 11.5221C33.2034 11.3982 33.2034 11.1504 33.3273 11.0265L34.6902 3.59287C34.8141 2.72562 35.6813 2.10618 36.5486 2.23007C40.0176 2.72565 40.5132 6.1947 40.8849 7.68143C41.1326 8.92037 40.5132 15.9823 40.1415 19.3274C40.0176 20.3185 40.7609 21.1858 41.7521 21.1858H55.5043C57.4866 21.1858 59.7167 21.9292 59.8406 24.531C59.9645 26.1416 59.345 27.2566 58.1061 28.1239C57.2388 28.7434 57.2388 29.9823 57.9822 30.7256Z" fill="#010101"/>
<path d="M6.93799 55.8761H15.8584L11.3982 46.9557L6.93799 55.8761Z" fill="#E9262A"/>
<path d="M3.34502 53.1504L11.522 36.9203L19.699 53.1504C20.3185 52.6548 20.6901 52.0354 20.6901 51.1681V31.9646C20.6901 30.6017 19.5751 29.4867 18.2123 29.4867H4.70786C3.34502 29.4867 2.22998 30.6017 2.22998 31.9646V51.292C2.35387 52.0353 2.72555 52.7787 3.34502 53.1504Z" fill="#40C2D1"/>
<path d="M19.4514 29.8584C19.4514 29.9823 19.4514 30.1062 19.4514 30.2301V49.5575C19.4514 50.3009 19.0797 50.9204 18.708 51.4159L19.5753 53.1504C20.1947 52.6548 20.5664 52.0354 20.5664 51.1681V31.9646C20.5664 31.0974 20.0708 30.354 19.4514 29.8584Z" fill="#38B1BD"/>
<path d="M2.97335 52.5309V33.2035C2.97335 31.8407 4.08839 30.7257 5.45123 30.7257H18.8317C19.4512 30.7257 20.0707 30.9734 20.5662 31.469C20.4424 30.3539 19.3273 29.3629 18.2123 29.3629H4.70786C3.34502 29.3629 2.22998 30.4779 2.22998 31.8407V51.1681C2.22998 51.7876 2.47778 52.4071 2.97335 52.9027C2.97335 52.7788 2.97335 52.6548 2.97335 52.5309Z" fill="white"/>
<path d="M11.3981 37.0442L3.34497 53.1504L11.3981 37.0442Z" fill="#010101"/>
<path d="M18.0885 27.2567H4.70795C2.10618 27.2567 0 29.3628 0 31.9646V51.292C0 52.9026 0.867241 54.3894 2.23007 55.2566L2.97344 53.7699L3.22121 53.2743C2.60174 52.7788 2.23007 52.1593 2.23007 51.292V31.9646C2.23007 30.6018 3.34512 29.4867 4.70795 29.4867H18.0885C19.4513 29.4867 20.5663 30.6018 20.5663 31.9646V51.292C20.5663 52.0354 20.1947 52.7788 19.5752 53.2743L11.3982 37.0442L19.823 53.7699L20.5663 55.2566C21.9292 54.3894 22.7964 53.0265 22.7964 51.292V31.9646C22.7964 29.3628 20.6902 27.2567 18.0885 27.2567Z" fill="#010101"/>
<path d="M11.3981 37.0442L3.22112 53.2743L2.97335 53.7698L2.22998 55.2566C2.84945 55.6283 3.59283 55.8761 4.33619 56L5.45123 53.7698L11.2742 42.1239L17.0972 53.7698L18.2123 56C18.9556 56 19.699 55.7522 20.3185 55.2566L19.5751 53.7698L11.3981 37.0442Z" fill="#010101"/>
</svg>
