<svg width="56" height="56" viewBox="0 0 56 56" fill="none" xmlns="http://www.w3.org/2000/svg">
<path d="M4.41528 27.3538C4.41528 25.3077 6.03069 23.6923 8.07685 23.6923C10.123 23.6923 11.7384 25.3077 11.7384 27.3538V28.7539C11.7384 30.8 10.123 32.4154 8.07685 32.4154C6.03069 32.4154 4.41528 30.8 4.41528 28.7539V27.3538Z" fill="#FFEBB6"/>
<path d="M26.1691 47.2769C25.6307 47.6 24.8768 47.6 24.3384 47.2769L13.7845 40.9231C13.4615 40.7077 13.0307 40.7077 12.7076 40.9231C12.3845 41.1385 12.1691 41.4615 12.1691 41.8923C12.1691 42.323 12.3845 42.6461 12.7076 42.8615L13.8922 43.6154V43.7231V53.8462H2.36914V39.9538C2.36914 37.0461 4.73836 34.6769 7.64606 34.6769H9.15378C11.7384 34.6769 14.323 35.5384 16.3691 37.0461L26.2768 44.2615C26.7076 44.5846 27.0307 45.1231 27.0307 45.7692C27.0307 46.4154 26.7076 46.9538 26.1691 47.2769Z" fill="white"/>
<path d="M26.2769 44.1539L16.3692 36.9385C14.2154 35.4308 11.7385 34.5692 9.15387 34.5692H7.64615C6.24615 34.5692 4.84616 35.1077 3.98462 36.0769C4.2 36.7231 4.30772 37.3692 4.30772 38.0154V53.7384H13.8923V43.6154V43.5077L12.7077 42.7539C12.3846 42.5385 12.1692 42.2154 12.1692 41.7846C12.1692 41.3538 12.3846 41.0307 12.7077 40.8154C13.0308 40.6 13.4615 40.6 13.7846 40.8154L24.3385 47.1692C24.8769 47.4923 25.6308 47.4923 26.1692 47.1692C26.7077 46.8462 27.1385 46.2 27.1385 45.5538C27.0308 45.1231 26.8154 44.5846 26.2769 44.1539Z" fill="#FFEBB6"/>
<path d="M51.9078 28.7539C51.9078 30.8 50.2924 32.4154 48.2462 32.4154C46.2001 32.4154 44.5847 30.8 44.5847 28.7539V27.3538C44.5847 25.3077 46.2001 23.6923 48.2462 23.6923C50.2924 23.6923 51.9078 25.3077 51.9078 27.3538V28.7539Z" fill="#FFD14F"/>
<path d="M29.1846 45.6615C29.1846 45.123 29.5077 44.4769 29.9384 44.1539L39.8461 36.9385C42 35.4308 44.4769 34.5692 47.0615 34.5692H48.5692C51.4769 34.5692 53.8461 36.9385 53.8461 39.8462V53.7384H42.323V43.6154V43.5077L43.5077 42.7539C43.8307 42.5385 44.0461 42.2154 44.0461 41.7846C44.0461 41.3538 43.8307 41.0307 43.5077 40.8154C43.1846 40.6 42.7538 40.6 42.4307 40.8154L31.8769 47.1692C31.3384 47.4923 30.5846 47.4923 30.0461 47.1692C29.5077 46.9538 29.1846 46.4154 29.1846 45.6615Z" fill="white"/>
<path d="M43.6153 42.8615L42.4307 43.6154V43.7231V53.8462H52.0153V38.8769C52.0153 37.9077 52.123 37.0462 52.4461 36.2923C51.4769 35.3231 50.1845 34.6769 48.6769 34.6769H47.1692C44.5846 34.6769 41.9999 35.5384 39.9538 37.0461L30.0461 44.2615C29.6153 44.5846 29.2922 45.1231 29.2922 45.7692C29.2922 46.4154 29.6153 47.0615 30.2615 47.3846C30.7999 47.7077 31.5538 47.7077 32.0922 47.3846L42.6461 41.0307C42.9692 40.8154 43.3999 40.8154 43.723 41.0307C44.0461 41.2461 44.2615 41.5692 44.2615 42C44.1538 42.2154 43.9384 42.6461 43.6153 42.8615Z" fill="#FFD14F"/>
<path d="M52.0154 33.1692C53.3077 32.0923 54.0615 30.3692 54.1692 28.6461V27.2461C54.1692 24.0154 51.5846 21.3231 48.2461 21.3231C45.0154 21.3231 42.3231 23.9077 42.3231 27.2461V28.6461C42.3231 30.1538 42.8615 31.5538 43.9384 32.6308C42 33.0615 40.1692 33.923 38.5538 35.1077L28.6461 42.3231C28.4307 42.4308 28.2154 42.6461 28.1077 42.8615C27.8923 42.6461 27.7846 42.5384 27.5692 42.3231L17.6615 35.1077C16.0461 33.923 14.2154 33.0615 12.2769 32.6308C13.3538 31.5538 13.8923 30.1538 13.8923 28.6461V27.2461C13.8923 24.0154 11.3077 21.3231 7.96922 21.3231C4.73846 21.3231 2.04615 23.9077 2.04615 27.2461V28.6461C2.04615 30.3692 2.79999 31.9846 4.19999 33.1692C1.61538 34.4615 0.107692 37.0462 0 39.8461V54.8153C0 55.4615 0.538462 55.8923 1.07692 55.8923H14.6461C15.2923 55.8923 15.7231 55.3538 15.7231 54.8153V44.8L22.9384 49.1077C24.2308 49.8615 25.7384 49.8615 27.0307 49.2154C27.3538 49 27.6769 48.7846 28 48.4615C28.3231 48.7846 28.6461 49 28.9692 49.2154C29.6154 49.5385 30.2615 49.7539 30.9077 49.7539C31.6615 49.7539 32.4154 49.5385 33.0615 49.2154L40.2769 44.9077V54.9231C40.2769 55.5692 40.8154 56 41.3538 56H54.9231C55.5692 56 56 55.4615 56 54.9231V50.9384C56 50.4 55.4615 49.9692 54.9231 49.9692C54.3846 49.9692 53.8462 50.4 53.8462 50.9384V53.8461H42.4308V43.723V43.6154L43.6154 42.8615C44.1538 42.5384 44.2615 41.8923 43.9384 41.3538C43.6154 40.8153 42.9692 40.7077 42.4308 40.9231L31.8769 47.2769C31.3384 47.6 30.5846 47.6 30.0461 47.2769C29.5077 46.9538 29.0769 46.3076 29.0769 45.6615C29.0769 45.123 29.4 44.4769 29.8308 44.1538L39.7385 36.9384C41.8923 35.4308 44.3692 34.5692 46.9538 34.5692H48.4615C51.3692 34.5692 53.7385 36.9385 53.7385 39.8461V41.7846C53.7385 42.3231 54.2769 42.7539 54.8154 42.7539C55.3538 42.7539 55.8923 42.3231 55.8923 41.7846V39.8461C56.2154 37.0462 54.6 34.4615 52.0154 33.1692ZM4.41536 27.3538C4.41536 25.3076 6.03077 23.6923 8.07692 23.6923C10.1231 23.6923 11.7385 25.3076 11.7385 27.3538V28.7539C11.7385 30.8 10.1231 32.4154 8.07692 32.4154C6.03077 32.4154 4.41536 30.8 4.41536 28.7539V27.3538ZM26.1692 47.2769C25.6308 47.6 24.8769 47.6 24.3384 47.2769L13.7846 40.9231C13.4615 40.7077 13.0308 40.7077 12.7077 40.9231C12.3846 41.1385 12.1692 41.4615 12.1692 41.8923C12.1692 42.323 12.3846 42.6461 12.7077 42.8615L13.8923 43.6154V43.723V53.8461H2.36921V39.9538C2.36921 37.0461 4.73844 34.6769 7.64613 34.6769H9.15385C11.7385 34.6769 14.3231 35.5384 16.3692 37.0461L26.2769 44.2615C26.7077 44.5846 27.0307 45.1231 27.0307 45.7692C27.0307 46.4154 26.7077 46.9538 26.1692 47.2769ZM44.5846 27.3538C44.6923 25.4153 46.3077 23.8 48.2461 23.8C50.1846 23.8 51.8 25.3076 51.9077 27.3538V28.7539C51.8 30.6923 50.1846 32.3077 48.2461 32.3077C46.3077 32.3077 44.6923 30.8 44.5846 28.7539V27.3538Z" fill="#282828"/>
<path d="M13.7846 15.9384L20.7846 8.93845L29.1846 17.3384C29.4 17.5538 29.6154 17.6615 29.9385 17.6615C30.2616 17.6615 30.477 17.5538 30.6923 17.3384L44.2616 3.76923V4.73845C44.2616 5.27692 44.8 5.70768 45.3385 5.70768C45.8769 5.70768 46.4154 5.27692 46.4154 4.73845V1.07692C46.4154 0.753846 46.3077 0.538448 46.0923 0.323064C45.8769 0.107679 45.5539 0 45.3385 0H41.6769C41.2462 0 40.8154 0.215385 40.6 0.538462C40.3846 0.861538 40.3846 1.29228 40.6 1.72305C40.8154 2.04613 41.2462 2.26151 41.6769 2.26151H42.6462L29.8308 15.0769L21.4308 6.6769C21.2154 6.46152 21 6.35384 20.6769 6.35384C20.3539 6.35384 20.1385 6.46152 19.9231 6.6769L12.1693 14.3231C11.9539 14.5384 11.8462 14.7538 11.8462 15.0769C11.8462 15.4 11.9539 15.6154 12.1693 15.8307C12.3846 16.0461 12.6 16.1538 12.9231 16.1538C13.2462 16.2615 13.5693 16.0461 13.7846 15.9384Z" fill="#282828"/>
<path d="M10.2307 18.9538C10.5538 18.9538 10.7692 18.8462 10.9846 18.6308C11.1999 18.4154 11.3077 18.0923 11.3077 17.8769C11.3077 17.2308 10.7692 16.8 10.2307 16.8C9.90765 16.8 9.69226 16.9077 9.47687 17.1231C9.26149 17.3385 9.15381 17.5538 9.15381 17.8769C9.15381 18.2 9.26149 18.4154 9.47687 18.6308C9.58456 18.8462 9.90765 18.9538 10.2307 18.9538Z" fill="#282828"/>
</svg>
