<svg width="405" height="247" viewBox="0 0 405 247" fill="none" xmlns="http://www.w3.org/2000/svg">
<path fill-rule="evenodd" clip-rule="evenodd" d="M260.187 82.1527C261.638 80.4874 262.818 79.0292 264.106 77.6735C271.689 69.6865 281.166 65.6161 291.996 64.5684C301.393 63.6593 310.668 64.4015 319.581 67.7067C333.138 72.7346 341.535 82.6595 346.108 96.0824C348.691 103.665 349.799 111.505 349.813 119.484C349.855 145.37 349.832 171.256 349.826 197.142C349.825 203.231 345.801 207.496 339.711 207.56C329.748 207.664 319.782 207.651 309.818 207.566C304.039 207.516 299.951 203.2 299.949 197.401C299.944 175.924 299.941 154.446 299.955 132.968C299.958 130.02 299.616 127.142 298.485 124.402C296.508 119.608 293.107 116.194 288.247 114.38C282.428 112.208 276.526 112.231 270.863 114.778C263.578 118.053 260.269 124.135 260.228 131.864C260.111 153.495 260.187 175.127 260.187 196.759C260.186 203.52 256.175 207.57 249.399 207.586C239.845 207.608 230.292 207.608 220.738 207.586C214.092 207.57 210.061 203.474 210.061 196.796C210.061 157.326 210.061 117.856 210.061 78.3858C210.061 71.604 214.085 67.5853 220.866 67.5853C231.344 67.5853 241.822 67.5841 252.3 67.5857C257.097 67.5865 260.16 70.6452 260.185 75.4632C260.195 77.5652 260.187 79.6668 260.187 82.1527Z" fill="#133C8A"/>
<path fill-rule="evenodd" clip-rule="evenodd" d="M126.86 148.812C129.219 141.442 131.485 134.39 133.735 127.334C139.153 110.341 144.548 93.3419 149.984 76.3555C151.727 70.9069 156.411 67.5878 162.184 67.587C172.867 67.5849 183.55 67.5853 194.233 67.587C200.086 67.5878 203.581 72.6965 201.462 78.1611C195.9 92.5017 190.33 106.839 184.771 121.179C174.741 147.051 164.709 172.922 154.697 198.801C152.599 204.223 148.742 207.434 142.896 207.522C132.062 207.686 121.222 207.685 110.389 207.487C105.341 207.395 101.636 204.732 99.7734 199.961C83.9365 159.404 68.1295 118.834 52.3254 78.2636C50.1 72.5513 53.5351 67.5878 59.6662 67.5874C70.2465 67.5861 80.8264 67.587 91.4062 67.587C97.451 67.587 101.999 70.8979 103.84 76.6631C107.54 88.2509 111.231 99.8416 114.924 111.431C118.711 123.313 122.496 135.195 126.283 147.076C126.438 147.56 126.604 148.042 126.86 148.812Z" fill="#133C8A"/>
<path fill-rule="evenodd" clip-rule="evenodd" d="M28.0448 151.611C43.7158 149.597 57.97 160.889 59.5388 176.561C61.2991 194.151 46.9299 208.835 29.2467 207.509C28.8445 207.479 28.4492 207.353 28.051 207.271C27.5427 206.676 27.5468 205.95 27.5464 205.232C27.5378 188.036 27.5378 170.84 27.5485 153.643C27.5489 152.933 27.4963 152.195 28.0448 151.611Z" fill="#EF6930"/>
<path fill-rule="evenodd" clip-rule="evenodd" d="M349.827 35.9204C352.903 35.8991 355.98 35.8609 359.057 35.8593C371.729 35.8523 384.401 35.8458 397.072 35.8626C401.13 35.8683 403.72 38.4182 403.582 42.1818C403.462 45.4607 400.872 47.8785 397.381 47.892C391.327 47.9162 385.273 47.9048 379.22 47.8978C369.421 47.8859 359.624 47.865 349.826 47.8477C349.38 47.4184 349.354 46.8517 349.348 46.2948C349.318 43.3562 349.318 40.4173 349.347 37.4791C349.352 36.9169 349.408 36.3596 349.827 35.9204Z" fill="#EF6930"/>
<path fill-rule="evenodd" clip-rule="evenodd" d="M28.0448 151.611C28.0469 170.164 28.049 188.718 28.051 207.271C24.7531 207.051 21.6693 206.115 18.7881 204.506C18.3352 203.95 18.3044 203.284 18.3032 202.614C18.2822 187.016 18.3135 171.417 18.2843 155.819C18.2835 155.405 18.3504 155.005 18.4445 154.606C21.0151 153.095 23.785 152.177 26.7456 151.823C27.1807 151.771 27.6118 151.682 28.0448 151.611Z" fill="#E8572D"/>
<path fill-rule="evenodd" clip-rule="evenodd" d="M18.4441 154.606C18.9516 154.981 18.7955 155.531 18.7955 156.022C18.7975 172.183 18.7922 188.344 18.7877 204.505C14.8598 202.705 11.6996 199.983 9.15407 196.521C9.62126 190.082 9.31144 183.634 9.35089 177.19C9.3813 172.23 9.52388 167.266 9.21406 162.308C11.6445 158.97 14.7111 156.39 18.4441 154.606Z" fill="#E3472B"/>
<path fill-rule="evenodd" clip-rule="evenodd" d="M352.907 51.9181C359.987 51.8972 367.067 51.8209 374.146 51.8804C377.242 51.9062 379.758 54.8026 379.675 57.938C379.587 61.2575 376.938 63.8163 373.438 63.8344C366.049 63.8721 358.659 63.8512 351.269 63.8557C346.908 63.8586 342.545 63.8688 338.183 63.8606C337.633 63.8598 337.046 64.0091 336.548 63.6216C337.289 62.9015 338.218 63.1693 339.09 63.1348C342.886 63.0495 346.683 63.1278 350.48 63.0934C352.29 63.077 352.401 62.97 352.415 61.1779C352.435 58.7712 352.41 56.3645 352.427 53.9578C352.433 53.2472 352.37 52.509 352.907 51.9181Z" fill="#EF6930"/>
<path fill-rule="evenodd" clip-rule="evenodd" d="M345.915 228.122C344.754 231.422 343.55 234.707 342.457 238.029C342.102 239.108 341.635 239.569 340.424 239.528C339.312 239.491 338.722 239.29 338.338 238.11C337.299 234.911 336.072 231.773 334.859 228.445C334.445 229.063 334.574 229.612 334.571 230.115C334.555 232.831 334.498 235.549 334.591 238.262C334.634 239.535 333.962 239.589 333.071 239.473C332.295 239.372 331.145 240.018 331.169 238.341C331.234 233.729 331.209 229.117 331.176 224.504C331.17 223.684 331.458 223.496 332.238 223.467C336.576 223.305 336.575 223.284 338.042 227.385C338.455 228.54 338.879 229.691 339.28 230.849C339.677 231.996 340.052 233.15 340.556 234.659C341.559 231.83 342.461 229.321 343.34 226.804C344.498 223.488 344.492 223.559 348.006 223.451C349.438 223.406 349.916 223.697 349.872 225.242C349.747 229.543 349.791 233.852 349.855 238.155C349.871 239.243 349.562 239.66 348.486 239.489C348.185 239.442 347.864 239.441 347.563 239.489C346.441 239.668 346.067 239.281 346.099 238.091C346.189 234.784 346.13 231.472 346.13 228.162C346.058 228.149 345.987 228.135 345.915 228.122Z" fill="#133C8B"/>
<path fill-rule="evenodd" clip-rule="evenodd" d="M70.4371 227.466C69.1621 231.105 67.9808 234.46 66.8146 237.819C66.4773 238.791 66.2837 239.655 64.8004 239.551C63.5286 239.461 62.9464 239.144 62.5429 237.905C61.4758 234.624 60.2328 231.401 58.869 228.182C58.869 231.483 58.7881 234.787 58.9077 238.084C58.9578 239.466 58.3468 239.575 57.2899 239.493C56.3843 239.422 55.3907 239.852 55.4376 238.164C55.5609 233.709 55.5185 229.248 55.4516 224.79C55.4347 223.682 55.7758 223.365 56.8289 223.472C58.1968 223.61 59.8975 222.948 60.8611 223.74C61.7437 224.465 61.8616 226.123 62.305 227.374C63.1568 229.778 64.0004 232.185 64.867 234.647C66.0508 231.281 67.2584 227.966 68.3678 224.618C68.6624 223.729 69.0725 223.382 69.9958 223.474C71.3119 223.604 73.0287 222.929 73.8538 223.745C74.6764 224.558 74.0933 226.269 74.1061 227.585C74.1394 231.068 74.0728 234.554 74.1426 238.038C74.1656 239.169 73.8809 239.564 72.6946 239.508C70.0542 239.382 70.4634 239.823 70.4429 237.183C70.4182 234.06 70.4371 230.937 70.4371 227.466Z" fill="#133C8B"/>
<path fill-rule="evenodd" clip-rule="evenodd" d="M349.827 35.9204C349.827 39.896 349.826 43.8721 349.825 47.8473C344.381 47.8473 338.935 47.8473 333.49 47.8473C333.045 47.4184 333.018 46.8513 333.012 46.2944C332.982 43.3558 332.982 40.4168 333.011 37.4783C333.017 36.9169 333.072 36.3596 333.492 35.92C338.937 35.9204 344.382 35.9204 349.827 35.9204Z" fill="#E8572D"/>
<path fill-rule="evenodd" clip-rule="evenodd" d="M363.324 67.8502C363.754 67.6009 364.227 67.698 364.682 67.6997C369.303 67.7165 373.924 67.73 378.546 67.7723C382.19 67.8055 384.731 70.3159 384.703 73.8098C384.676 77.2347 382.142 79.6791 378.569 79.7037C373.896 79.7365 369.223 79.7595 364.55 79.7726C364.049 79.7738 363.521 79.9096 363.049 79.6049C363.517 79.0812 364.157 79.1333 364.765 79.1124C365.74 79.0792 366.718 79.0538 367.69 79.1103C368.956 79.1837 369.425 78.6502 369.396 77.3983C369.34 74.9403 369.337 72.4795 369.397 70.0223C369.428 68.7245 368.869 68.2857 367.646 68.3632C366.778 68.4181 365.901 68.3952 365.029 68.3603C364.424 68.3365 363.78 68.3935 363.324 67.8502Z" fill="#EF6930"/>
<path fill-rule="evenodd" clip-rule="evenodd" d="M354.137 19.9624C357.209 19.9452 360.283 19.8513 363.353 19.9325C366.649 20.019 369.063 22.6357 369.063 25.9302C369.063 29.1907 366.746 31.7787 363.505 31.8906C360.386 31.998 357.261 31.8943 354.139 31.8832C353.718 31.444 353.668 30.8855 353.663 30.3254C353.634 27.3888 353.633 24.4519 353.664 21.5154C353.669 20.9593 353.69 20.3922 354.137 19.9624Z" fill="#EF6930"/>
<path fill-rule="evenodd" clip-rule="evenodd" d="M352.907 51.9181C352.908 55.3016 352.873 58.6855 352.93 62.0682C352.948 63.1459 352.737 63.6285 351.507 63.606C347.347 63.5285 343.186 63.5662 339.025 63.5605C338.602 63.1188 338.563 62.557 338.558 61.9969C338.531 59.1567 338.529 56.3166 338.558 53.4764C338.564 52.9146 338.618 52.3565 339.038 51.9161C343.661 51.9165 348.284 51.9173 352.907 51.9181Z" fill="#E64F2C"/>
<path fill-rule="evenodd" clip-rule="evenodd" d="M138.76 241.635C137.105 241.635 135.876 241.594 134.65 241.65C133.871 241.686 133.24 241.519 132.768 240.88C131.971 239.8 131.032 239.494 129.609 239.704C125.993 240.237 122.564 237.934 121.483 234.521C120.202 230.476 121.74 226.038 125.076 224.156C128.332 222.319 132.9 223.038 135.231 225.754C137.654 228.575 137.805 233.808 135.394 236.762C134.666 237.656 134.843 238.031 135.584 238.654C136.592 239.502 137.511 240.453 138.76 241.635Z" fill="#133C8B"/>
<path fill-rule="evenodd" clip-rule="evenodd" d="M322.394 47.8481C319.469 47.8654 316.543 47.9429 313.619 47.8855C310.292 47.8199 307.63 45.0793 307.647 41.8726C307.664 38.6617 310.166 36.0057 313.471 35.8995C316.443 35.8043 319.421 35.9056 322.397 35.92C322.817 36.3592 322.874 36.9161 322.879 37.4778C322.909 40.4172 322.909 43.3566 322.878 46.296C322.872 46.8537 322.841 47.4196 322.394 47.8481Z" fill="#DE3429"/>
<path fill-rule="evenodd" clip-rule="evenodd" d="M300.156 228.511C300.156 231.994 300.12 235.04 300.176 238.084C300.194 239.086 300.022 239.558 298.859 239.508C296.068 239.389 296.584 239.787 296.564 237.247C296.533 233.148 296.591 229.048 296.533 224.949C296.517 223.87 296.721 223.51 297.927 223.428C299.885 223.295 301.102 223.868 302.113 225.63C303.705 228.406 305.613 231 307.423 233.725C307.895 233.331 307.737 232.897 307.739 232.533C307.755 229.869 307.77 227.204 307.734 224.54C307.724 223.762 307.935 223.39 308.769 223.477C309.277 223.529 309.802 223.536 310.307 223.476C311.158 223.376 311.322 223.757 311.317 224.529C311.285 229.14 311.282 233.752 311.319 238.364C311.326 239.213 311.096 239.435 310.218 239.522C308.283 239.714 307.042 239.143 306.012 237.365C304.311 234.429 302.279 231.682 300.156 228.511Z" fill="#133C8B"/>
<path fill-rule="evenodd" clip-rule="evenodd" d="M9.21406 162.309C9.81193 162.767 9.86575 163.415 9.86534 164.098C9.86165 174.32 9.86164 184.541 9.86493 194.764C9.86493 195.452 9.77782 196.091 9.15448 196.522C6.08834 192.918 4.48295 188.644 3.74332 184.07C2.48555 176.294 4.28818 169.164 8.74358 162.687C8.85288 162.529 9.05546 162.434 9.21406 162.309Z" fill="#DB2928"/>
<path fill-rule="evenodd" clip-rule="evenodd" d="M100.933 228.9C100.933 231.968 100.894 235.038 100.954 238.105C100.974 239.144 100.714 239.538 99.5984 239.509C97.3992 239.452 97.3976 239.518 97.3976 237.325C97.3976 233.125 97.4321 228.923 97.3729 224.724C97.3586 223.7 97.691 223.54 98.6529 223.441C100.651 223.235 101.923 223.816 102.966 225.653C104.541 228.43 106.467 231.01 108.543 233.604C108.543 230.77 108.662 227.929 108.498 225.104C108.402 223.465 109.173 223.443 110.38 223.46C111.508 223.476 112.243 223.427 112.191 225.023C112.05 229.373 112.097 233.731 112.172 238.084C112.193 239.277 111.794 239.445 110.698 239.534C108.94 239.678 107.922 239.048 107.014 237.561C105.188 234.564 103.15 231.695 101.2 228.774C101.11 228.816 101.022 228.858 100.933 228.9Z" fill="#133C8B"/>
<path fill-rule="evenodd" clip-rule="evenodd" d="M41.9674 233.676C41.9674 230.726 42.0751 227.77 41.9259 224.827C41.84 223.137 42.8574 223.494 43.7721 223.492C44.6933 223.49 45.6594 223.161 45.6105 224.836C45.481 229.288 45.539 233.746 45.5879 238.201C45.5986 239.192 45.3257 239.452 44.3124 239.526C42.5004 239.659 41.3318 239.155 40.353 237.496C38.5697 234.476 36.4967 231.626 34.3571 228.425C34.3571 231.927 34.3173 235.07 34.3797 238.212C34.4003 239.237 34.0761 239.52 33.071 239.506C30.8225 239.473 30.8217 239.525 30.8217 237.22C30.8217 233.123 30.8566 229.026 30.7979 224.929C30.7827 223.858 30.9701 223.503 32.1785 223.426C34.1377 223.3 35.3449 223.871 36.3561 225.636C37.9554 228.426 39.8809 231.031 41.6683 233.715C41.7681 233.702 41.868 233.689 41.9674 233.676Z" fill="#133C8B"/>
<path fill-rule="evenodd" clip-rule="evenodd" d="M171.42 231.39C171.418 236.408 168.217 239.768 163.419 239.789C158.693 239.809 155.495 236.472 155.506 231.533C155.516 226.517 158.693 223.215 163.536 223.184C168.362 223.153 171.423 226.338 171.42 231.39Z" fill="#133C8B"/>
<path fill-rule="evenodd" clip-rule="evenodd" d="M207.375 227.21C205.754 226.472 204.061 226.164 202.294 226.306C199.289 226.548 197.411 229.274 197.896 232.688C198.294 235.492 200.791 237.141 203.65 236.568C205.352 236.226 204.4 234.951 204.584 234.1C204.792 233.137 204.005 233.322 203.414 233.19C202.651 233.018 201.366 233.966 201.279 232.138C201.211 230.715 201.507 230.082 203.077 230.279C204.789 230.493 207.108 229.567 208.084 230.629C208.939 231.559 208.343 233.836 208.351 235.518C208.366 238.79 208.042 239.141 204.734 239.559C203.514 239.714 202.304 239.856 201.058 239.682C196.277 239.012 193.693 236.041 193.879 231.348C194.058 226.839 197.263 223.524 201.749 223.242C202.668 223.184 203.597 223.195 204.517 223.247C207.583 223.419 208.016 224.019 207.375 227.21Z" fill="#133C8B"/>
<path fill-rule="evenodd" clip-rule="evenodd" d="M322.394 47.8482C322.395 43.8721 322.396 39.8961 322.396 35.9204C326.095 35.9204 329.794 35.9204 333.492 35.9204C333.492 39.8961 333.491 43.8721 333.491 47.8473C329.791 47.8477 326.093 47.8477 322.394 47.8482Z" fill="#E3482B"/>
<path fill-rule="evenodd" clip-rule="evenodd" d="M313.136 239.481C314.756 235.097 316.327 230.845 317.899 226.595C317.969 226.404 318.048 226.215 318.118 226.024C319.047 223.484 319.05 223.56 321.837 223.452C323.134 223.402 323.685 223.834 324.1 225.043C325.623 229.486 327.257 233.891 328.89 238.296C329.223 239.194 329.192 239.658 328.077 239.484C327.977 239.468 327.872 239.481 327.769 239.482C325.234 239.494 325.188 239.508 324.462 237.129C324.179 236.201 323.788 235.707 322.766 235.881C322.417 235.941 322.049 235.89 321.69 235.89C318.599 235.89 318.58 235.883 317.472 238.69C317.251 239.25 316.99 239.516 316.37 239.491C315.354 239.453 314.334 239.481 313.136 239.481Z" fill="#133C8B"/>
<path fill-rule="evenodd" clip-rule="evenodd" d="M233.139 239.422C232.652 239.451 232.398 239.476 232.144 239.48C229.198 239.526 229.163 239.538 228.185 236.753C227.953 236.089 227.666 235.842 227.001 235.884C226.388 235.922 225.771 235.891 225.155 235.891C222.319 235.891 222.279 235.878 221.401 238.48C221.14 239.256 220.79 239.55 219.989 239.497C219.072 239.436 218.148 239.482 217.148 239.482C217.277 238.331 217.789 237.384 218.153 236.395C219.596 232.468 221.082 228.556 222.487 224.615C222.792 223.759 223.187 223.456 224.113 223.462C227.339 223.483 227.34 223.443 228.431 226.447C229.977 230.705 231.522 234.965 233.139 239.422Z" fill="#133C8B"/>
<path fill-rule="evenodd" clip-rule="evenodd" d="M139.573 229.227C139.573 227.689 139.614 226.15 139.556 224.615C139.525 223.779 139.733 223.47 140.646 223.461C143.273 223.436 143.268 223.39 143.273 226.007C143.278 228.467 143.238 230.928 143.318 233.386C143.381 235.297 144.337 236.377 145.853 236.498C147.977 236.669 149.173 235.648 149.211 233.488C149.263 230.619 149.267 227.747 149.206 224.878C149.184 223.866 149.365 223.431 150.52 223.456C153.02 223.512 153.03 223.444 153.019 225.975C153.007 228.536 153.099 231.106 152.925 233.657C152.628 238.009 149.75 240.261 145.409 239.727C141.416 239.236 139.61 237.228 139.575 233.225C139.563 231.892 139.573 230.56 139.573 229.227Z" fill="#133C8B"/>
<path fill-rule="evenodd" clip-rule="evenodd" d="M354.137 19.9625C354.137 23.9357 354.138 27.9097 354.139 31.8833C352.088 31.8952 350.033 31.9907 347.986 31.8989C344.709 31.7525 342.345 29.1022 342.393 25.7794C342.439 22.6144 344.941 20.015 348.134 19.9219C350.132 19.8637 352.135 19.944 354.137 19.9625Z" fill="#E54D2C"/>
<path fill-rule="evenodd" clip-rule="evenodd" d="M264.288 231.364C264.288 229.11 264.323 226.856 264.271 224.604C264.251 223.738 264.511 223.448 265.398 223.468C267.808 223.522 270.225 223.566 272.631 223.455C273.957 223.394 273.697 224.187 273.694 224.916C273.692 225.685 273.999 226.622 272.58 226.491C271.411 226.382 270.221 226.509 269.043 226.457C268.224 226.42 268.013 226.746 267.988 227.527C267.91 229.947 267.876 229.945 270.297 229.945C270.708 229.945 271.118 229.945 271.529 229.945C273.326 229.947 273.759 230.557 273.35 232.352C273.218 232.935 272.856 232.919 272.451 232.923C271.323 232.933 270.192 232.966 269.065 232.917C268.271 232.881 267.926 233.151 267.999 233.965C268.045 234.473 268.043 234.992 267.999 235.5C267.937 236.22 268.183 236.502 268.946 236.471C270.329 236.415 271.721 236.522 273.101 236.435C274.18 236.367 274.176 237.025 274.033 237.681C273.893 238.323 274.702 239.484 273.175 239.483C270.506 239.48 267.837 239.458 265.17 239.496C264.332 239.508 264.282 239.055 264.285 238.43C264.296 236.075 264.289 233.719 264.288 231.364Z" fill="#143D8B"/>
<path fill-rule="evenodd" clip-rule="evenodd" d="M247.43 235.578C248.519 232.024 249.506 228.763 250.525 225.511C250.733 224.845 250.663 223.802 251.317 223.624C252.322 223.352 253.449 223.477 254.521 223.516C255.116 223.538 254.888 223.993 254.774 224.314C253.082 229.127 251.376 233.936 249.699 238.754C249.517 239.28 249.242 239.442 248.71 239.495C245.468 239.814 245.315 239.74 244.258 236.711C242.863 232.712 241.522 228.693 240.073 224.713C239.668 223.599 239.989 223.459 241.011 223.466C243.683 223.484 243.68 223.445 244.463 225.988C245.41 229.061 246.363 232.131 247.43 235.578Z" fill="#133C8B"/>
<path fill-rule="evenodd" clip-rule="evenodd" d="M85.0689 231.485C85.0689 229.178 85.0899 226.871 85.0566 224.564C85.0463 223.841 85.1326 223.445 86.0284 223.466C88.5439 223.525 91.0636 223.539 93.5783 223.465C94.7847 223.429 94.6076 224.173 94.5628 224.865C94.5196 225.537 94.9618 226.522 93.6009 226.458C92.5243 226.409 91.4342 226.54 90.3675 226.427C89.0288 226.285 88.6175 226.835 88.8098 228.068C88.8566 228.368 88.8439 228.684 88.8122 228.989C88.7342 229.729 89.0551 229.985 89.7848 229.957C90.9136 229.914 92.0481 229.999 93.1739 229.931C94.3376 229.861 94.0972 230.672 94.0319 231.262C93.9633 231.884 94.5817 232.941 93.1744 232.911C92.0962 232.889 91.0147 232.951 89.9389 232.896C89.076 232.851 88.6922 233.145 88.8106 234.03C88.8509 234.331 88.8562 234.65 88.8098 234.95C88.6294 236.125 89.0325 236.602 90.2907 236.481C91.5119 236.364 92.7565 236.508 93.9859 236.439C94.9663 236.384 95.0012 236.992 94.8574 237.606C94.7041 238.261 95.519 239.441 94.0574 239.467C91.336 239.514 88.6125 239.454 85.8907 239.495C84.9991 239.509 85.0644 238.987 85.066 238.405C85.0726 236.099 85.0689 233.792 85.0689 231.485Z" fill="#133C8B"/>
<path fill-rule="evenodd" clip-rule="evenodd" d="M18.4934 231.448C18.4934 229.195 18.5329 226.94 18.4741 224.689C18.4507 223.791 18.6274 223.426 19.6357 223.461C21.9421 223.542 24.258 223.574 26.5611 223.453C27.8829 223.383 27.8764 224.019 27.9154 224.996C27.9602 226.114 27.6672 226.586 26.4715 226.472C25.4036 226.369 24.3163 226.489 23.241 226.438C22.466 226.4 22.0864 226.616 22.1805 227.456C22.2376 227.962 22.2281 228.483 22.1825 228.991C22.1168 229.719 22.3843 230.007 23.1346 229.958C23.9519 229.904 24.7757 229.946 25.5971 229.946C27.6496 229.947 27.6869 230.018 27.4963 232.108C27.4433 232.688 27.2748 232.938 26.6819 232.913C26.0158 232.885 25.3477 232.909 24.6804 232.909C22.0301 232.909 22.0679 232.908 22.1677 235.551C22.1965 236.322 22.4574 236.491 23.1572 236.468C24.5411 236.424 25.932 236.522 27.3122 236.437C28.6875 236.352 28.2762 237.303 28.2918 237.974C28.3086 238.678 28.6086 239.543 27.2756 239.504C24.6607 239.427 22.0412 239.457 19.4245 239.496C18.6619 239.508 18.4696 239.228 18.4799 238.515C18.5156 236.161 18.4939 233.805 18.4934 231.448Z" fill="#133C8B"/>
<path fill-rule="evenodd" clip-rule="evenodd" d="M185.732 235.779C185.783 239.126 186.666 239.15 182.491 239.673C177.908 240.247 174.28 238.178 173.374 234.29C172.604 230.983 173.028 227.828 175.674 225.38C178.401 222.856 181.699 222.895 185.087 223.541C185.658 223.65 185.824 223.988 185.811 224.523C185.789 225.379 185.805 226.237 185.805 227.187C182.865 226.147 180.062 225.578 177.892 228.397C176.641 230.021 176.663 232.74 177.792 234.501C179.132 236.593 180.921 236.881 185.732 235.779Z" fill="#133C8B"/>
<path fill-rule="evenodd" clip-rule="evenodd" d="M279.698 233.019C279.698 231.279 279.633 229.536 279.721 227.799C279.777 226.689 279.365 226.326 278.318 226.461C277.915 226.513 277.499 226.47 277.088 226.47C274.965 226.469 274.827 226.285 275.059 224.238C275.129 223.619 275.382 223.478 275.93 223.48C279.725 223.492 283.521 223.502 287.315 223.478C288.494 223.47 288.141 224.318 288.109 224.878C288.074 225.468 288.61 226.447 287.336 226.463C286.515 226.473 285.688 226.533 284.876 226.453C283.824 226.35 283.464 226.682 283.487 227.786C283.559 231.214 283.461 234.646 283.542 238.073C283.57 239.245 283.22 239.546 282.078 239.511C279.701 239.439 279.699 239.504 279.699 237.165C279.698 235.783 279.698 234.401 279.698 233.019Z" fill="#153D8B"/>
<path fill-rule="evenodd" clip-rule="evenodd" d="M380.947 84.4913C383.463 83.0593 386.554 83.5904 388.441 85.7793C390.257 87.8867 390.353 91.1045 388.665 93.3148C386.91 95.6112 383.92 96.3132 381.242 95.0576C381.021 94.7111 380.823 94.3465 380.823 93.9283C380.819 90.7818 380.595 87.6329 380.947 84.4913Z" fill="#EF6830"/>
<path fill-rule="evenodd" clip-rule="evenodd" d="M363.324 67.8502C365.118 67.8691 366.912 67.9207 368.705 67.8929C369.557 67.8793 369.886 68.1647 369.877 69.0394C369.84 72.1597 369.831 75.2815 369.881 78.4013C369.897 79.4015 369.456 79.5971 368.585 79.5815C366.74 79.5487 364.895 79.5926 363.049 79.6053C362.626 79.5844 362.18 79.6455 361.853 79.2752C362.19 75.5686 361.822 71.8476 362.074 68.1393C362.434 67.7977 362.885 67.849 363.324 67.8502Z" fill="#E7542D"/>
<path fill-rule="evenodd" clip-rule="evenodd" d="M8.01381 232.853C8.01381 231.061 7.97642 229.268 8.03066 227.478C8.05532 226.667 7.78864 226.37 6.98533 226.44C6.37432 226.493 5.7403 226.365 5.14244 226.467C3.57115 226.734 3.23051 226.023 3.35666 224.611C3.42816 223.81 3.53129 223.453 4.4513 223.466C8.04176 223.517 11.6355 223.549 15.2243 223.453C16.4841 223.419 16.3789 224.087 16.3333 224.871C16.2906 225.608 16.6884 226.579 15.2514 226.474C14.1399 226.393 12.6106 226.1 11.9922 226.676C11.181 227.432 11.7493 228.985 11.7275 230.192C11.6795 232.854 11.6791 235.517 11.7308 238.179C11.7489 239.109 11.5993 239.534 10.5039 239.513C8.01587 239.466 8.01464 239.533 8.01464 237.001C8.01381 235.618 8.01381 234.235 8.01381 232.853Z" fill="#133C8B"/>
<path fill-rule="evenodd" clip-rule="evenodd" d="M339.038 51.9161C339.034 55.7978 339.029 59.6791 339.026 63.5605C338.199 63.5806 337.373 63.6011 336.548 63.6216C334.158 63.5982 331.467 60.6141 331.646 57.5611C331.823 54.5225 334.208 52.0321 337.198 51.8685C337.809 51.8349 338.425 51.8976 339.038 51.9161Z" fill="#DB2A28"/>
<path fill-rule="evenodd" clip-rule="evenodd" d="M354.145 4.25714C356.584 3.51737 359.171 4.40805 360.627 6.48793C362.185 8.71503 362.109 11.6737 360.44 13.7655C358.854 15.7539 356.226 16.4838 353.842 15.5985C354.114 12.3753 353.93 9.14519 353.98 5.91916C353.989 5.36146 353.869 4.789 354.145 4.25714Z" fill="#EF6830"/>
<path fill-rule="evenodd" clip-rule="evenodd" d="M256.889 231.396C256.889 229.195 256.922 226.993 256.873 224.793C256.852 223.866 257.01 223.435 258.114 223.452C260.705 223.494 260.706 223.426 260.706 226.032C260.706 230.024 260.65 234.018 260.739 238.009C260.767 239.274 260.349 239.664 259.181 239.489C258.93 239.452 258.663 239.45 258.413 239.489C257.222 239.677 256.804 239.235 256.861 237.997C256.96 235.802 256.889 233.597 256.889 231.396Z" fill="#163E8C"/>
<path fill-rule="evenodd" clip-rule="evenodd" d="M77.7204 231.375C77.7204 229.176 77.7619 226.976 77.701 224.779C77.6747 223.821 77.8896 223.442 78.9522 223.457C81.4201 223.49 81.4213 223.429 81.4213 225.824C81.4213 229.865 81.3655 233.905 81.4534 237.944C81.4822 239.255 81.0655 239.691 79.8197 239.491C79.47 239.435 79.0998 239.448 78.746 239.489C77.9205 239.585 77.6928 239.217 77.7064 238.432C77.7462 236.08 77.7204 233.728 77.7204 231.375Z" fill="#143D8B"/>
<path fill-rule="evenodd" clip-rule="evenodd" d="M215.136 231.534C215.136 233.789 215.092 236.045 215.157 238.298C215.185 239.235 214.925 239.516 213.96 239.508C211.439 239.488 211.438 239.54 211.438 237.029C211.438 232.981 211.486 228.932 211.409 224.885C211.387 223.727 211.696 223.288 212.847 223.477C213.197 223.535 213.572 223.534 213.922 223.478C214.996 223.304 215.181 223.828 215.155 224.771C215.096 227.024 215.136 229.28 215.136 231.534Z" fill="#133C8B"/>
<path fill-rule="evenodd" clip-rule="evenodd" d="M354.145 4.25714C354.548 4.84969 354.449 5.52385 354.45 6.17874C354.454 8.87209 354.461 11.5654 354.443 14.2588C354.44 14.7701 354.68 15.4402 353.842 15.5989C351.261 14.8169 349.707 12.6128 349.766 9.8173C349.823 7.09976 351.555 4.90095 354.145 4.25714Z" fill="#E3462B"/>
<path fill-rule="evenodd" clip-rule="evenodd" d="M362.074 68.1393C362.533 68.4505 362.463 68.9307 362.464 69.3826C362.467 72.2835 362.469 75.1847 362.462 78.0856C362.461 78.576 362.593 79.1538 361.853 79.2752C359.384 78.3033 357.912 76.1566 357.98 73.6301C358.049 71.0598 359.627 68.9443 362.074 68.1393Z" fill="#DC2E29"/>
<path fill-rule="evenodd" clip-rule="evenodd" d="M380.947 84.4913C381.379 84.8329 381.264 85.3193 381.264 85.7626C381.263 88.8606 381.251 91.9587 381.242 95.0576C378.994 94.0497 377.894 92.2577 377.834 89.8563C377.774 87.4672 378.738 85.6026 380.947 84.4913Z" fill="#DF372A"/>
<path fill-rule="evenodd" clip-rule="evenodd" d="M268.884 220.484C268.039 221.843 267.02 222.918 265.221 222.228C267.691 217.323 269.661 217.275 272.938 222.067C271.4 222.622 271.4 222.622 268.884 220.484Z" fill="#163E8C"/>
<path fill-rule="evenodd" clip-rule="evenodd" d="M18.9269 221.917C20.5307 220.722 20.5352 218.373 23.0561 218.305C25.7056 218.234 25.7113 220.695 27.3044 221.882C25.7031 222.246 24.5436 222.155 23.7748 220.84C23.3729 220.152 22.888 219.968 22.466 220.793C21.7396 222.212 20.5586 222.195 18.9269 221.917Z" fill="#163E8C"/>
<path fill-rule="evenodd" clip-rule="evenodd" d="M87.2578 220.407C89.6574 218.239 91.7682 218.804 93.7702 221.948C92.6069 222.143 91.5365 222.256 90.7213 221.221C90.28 220.661 89.8263 220.578 89.3641 221.164C88.5406 222.21 87.4361 222.147 86.2585 221.977C86.3102 221.251 87.1625 221.042 87.2833 220.382L87.2578 220.407Z" fill="#163E8C"/>
<path fill-rule="evenodd" clip-rule="evenodd" d="M166.414 220.407C166.419 221.065 167.278 221.245 167.28 221.978C166.147 222.134 165.076 222.224 164.25 221.181C163.842 220.665 163.372 220.533 162.9 221.172C162.115 222.235 161.029 222.132 159.862 221.98C162.04 218.704 163.55 218.367 166.443 220.439L166.414 220.407Z" fill="#153E8C"/>
<path fill-rule="evenodd" clip-rule="evenodd" d="M269.333 243.847C268.324 243.733 267.571 243.285 267.573 242.25C267.576 241.095 268.421 240.701 269.454 240.734C270.456 240.766 271.117 241.254 271.068 242.342C271.018 243.445 270.236 243.752 269.333 243.847Z" fill="#163F8C"/>
<path fill-rule="evenodd" clip-rule="evenodd" d="M166.443 220.439C166.632 220.136 166.844 219.845 167.006 219.527C167.947 217.67 169.425 217.058 171.619 217.7C170.091 219.15 168.93 220.981 166.414 220.408C166.414 220.407 166.443 220.439 166.443 220.439Z" fill="#1F4691"/>
<path fill-rule="evenodd" clip-rule="evenodd" d="M87.2833 220.383C84.7911 220.981 83.5252 219.237 82.0582 217.742C84.9358 216.568 86.0156 218.639 87.2566 220.41C87.2578 220.407 87.2833 220.383 87.2833 220.383Z" fill="#204691"/>
<path fill-rule="evenodd" clip-rule="evenodd" d="M133.151 231.573C133.138 234.917 131.37 236.785 128.492 236.494C128.339 236.479 128.183 236.472 128.034 236.436C125.976 235.938 124.795 233.551 125.097 230.505C125.339 228.066 126.91 226.414 129.044 226.356C131.586 226.288 133.163 228.29 133.151 231.573Z" fill="#FEFEFE"/>
<path fill-rule="evenodd" clip-rule="evenodd" d="M167.508 231.481C167.518 234.871 165.806 236.756 162.952 236.497C162.799 236.483 162.643 236.475 162.493 236.442C160.434 235.995 159.152 233.624 159.407 230.744C159.638 228.133 161.265 226.379 163.476 226.356C165.984 226.33 167.497 228.254 167.508 231.481Z" fill="#FEFEFE"/>
<path fill-rule="evenodd" clip-rule="evenodd" d="M321.173 226.943C321.84 228.982 322.329 230.583 322.893 232.156C323.19 232.981 322.86 233.063 322.143 233.09C319.131 233.202 319.13 233.222 320.039 230.384C320.36 229.381 320.697 228.384 321.173 226.943Z" fill="#FBFBFC"/>
<path fill-rule="evenodd" clip-rule="evenodd" d="M225.049 226.887C225.777 229.185 226.37 231.057 226.991 233.017C225.615 233.017 224.408 233.017 223.043 233.017C223.683 231.06 224.292 229.201 225.049 226.887Z" fill="#FAFBFC"/>
</svg>
