<svg width="57" height="56" viewBox="0 0 57 56" fill="none" xmlns="http://www.w3.org/2000/svg">
<path d="M48.9875 8.81573C43.0769 8.81573 33.1592 6.71199 28.05 1.50269C21.3381 8.41503 6.91233 8.81573 6.91233 8.81573C6.41144 40.7728 19.9356 50.991 27.9499 54.898C49.8891 45.2808 49.1878 11.6207 48.9875 8.81573Z" fill="#40C2D1"/>
<path d="M27.9499 2.90521C28.0501 2.40432 28.0501 2.00362 28.0501 1.6029L27.9499 1.50269C21.238 8.41503 6.81219 8.81573 6.81219 8.81573C6.3113 39.5706 18.9338 50.2898 26.9481 54.4973C27.2487 54.297 27.5492 53.9964 27.8498 53.7961C8.11452 39.1699 9.71737 14.6261 9.71737 11.5206C22.941 10.7191 27.9499 2.90521 27.9499 2.90521Z" fill="white"/>
<path d="M28.0501 2.90521C27.9499 2.40432 27.95 2.00362 27.95 1.6029L28.0501 1.50269C34.7621 8.41503 49.1878 8.81573 49.1878 8.81573C49.6887 39.5706 37.0662 50.2898 29.0519 54.4973C28.7514 54.297 28.4508 53.9964 28.1503 53.7961C47.8855 39.1699 46.2827 14.6261 46.2827 11.5206C33.1592 10.7191 28.0501 2.90521 28.0501 2.90521Z" fill="#37B1BF"/>
<path d="M49.9893 9.61721C49.9893 9.21649 49.9893 8.91593 49.9893 8.71557L49.8891 7.71378H48.9875C47.585 7.71378 45.8819 7.61358 44.0787 7.31304C41.3739 6.91233 38.4687 6.21113 35.7639 5.10916C33.0591 4.00719 30.5546 2.50448 28.7514 0.701264L28.0501 0L27.3489 0.701264C25.746 2.30413 23.7424 3.60644 21.5385 4.50805C18.2326 6.01073 14.526 6.81217 11.721 7.21289C10.3185 7.41325 9.11632 7.51345 8.21471 7.61363C7.814 7.61363 7.41328 7.71378 7.21292 7.71378C7.11274 7.71378 7.01258 7.71378 6.9124 7.71378C6.9124 7.71378 6.91239 7.71378 6.81221 7.71378H5.81042V8.71557C5.81042 9.31665 5.81042 9.91771 5.81042 10.5188C5.81042 18.2325 6.61184 24.644 8.01434 30.0537C10.1181 38.1681 13.424 43.8783 17.0304 47.8855C20.6369 51.8926 24.4437 54.2969 27.4491 55.7996L27.8498 56L28.2505 55.7996C33.2594 53.5957 37.1664 50.1896 40.0716 46.1825C42.2755 43.1771 43.9786 39.8712 45.3811 36.5653C47.3846 31.5563 48.4866 26.347 49.1879 21.839C49.7889 17.3309 49.9893 13.424 49.9893 11.0197C49.9893 10.5188 49.9893 10.0179 49.9893 9.61721ZM44.6798 32.6583C43.2773 36.966 41.2737 41.2737 38.4687 45.0805C35.7639 48.6869 32.2576 51.7925 27.8498 53.7961C26.0466 52.8944 23.9428 51.5921 21.9392 49.8891C18.5331 47.084 15.0269 42.8766 12.3221 36.6655C9.61722 30.3542 7.814 22.0394 7.814 10.7191C7.814 10.4186 7.814 10.1181 7.814 9.91773C9.21651 9.81755 11.9213 9.51698 15.0269 8.81573C17.331 8.31483 19.7353 7.61359 22.1396 6.51163C24.2433 5.61002 26.2469 4.40789 27.8498 2.90521C29.0519 4.00718 30.4544 5.00893 31.9571 5.81036C34.6619 7.31304 37.7675 8.31487 40.6727 8.91594C43.1771 9.51702 45.6816 9.81752 47.7854 9.81752C47.7854 10.2182 47.7854 10.619 47.7854 11.1199C47.9857 15.2272 47.4848 23.9428 44.6798 32.6583Z" fill="#010101"/>
<path d="M37.7674 28.7513C37.7674 25.1449 35.1627 22.0393 31.5563 21.5384C27.8497 21.0375 24.4436 23.6422 23.6422 27.2486H23.7424C24.4436 24.8443 26.7477 23.1413 29.2522 23.542C31.7567 23.8425 33.5599 26.0465 33.6601 28.5509C33.6601 28.5509 33.7602 29.8533 33.059 31.4562C33.059 31.5563 33.059 31.5563 32.9588 31.6565C31.4561 34.6619 28.3506 36.5653 24.8443 36.0644C20.8372 35.5635 17.932 32.0572 17.932 28.0501H17.8318C17.7316 33.2594 21.4382 37.7674 26.5474 38.4687C31.5563 39.1699 36.1646 35.864 37.4669 31.0554C37.6672 30.3542 37.8676 29.5527 37.7674 28.7513Z" fill="#F2F8F9"/>
<path d="M29.4526 18.0321C24.7442 17.3309 20.2362 20.1359 18.6333 24.4436C18.6333 24.4436 18.6333 24.5438 18.5331 24.7441C18.5331 24.8443 18.433 24.9445 18.433 25.1449C18.2326 25.9463 18.0322 27.1484 18.0322 28.05C18.2326 31.4561 20.6369 34.2611 24.043 34.8622C27.7496 35.4633 31.2558 32.9588 32.0573 29.2522H31.9571C31.2559 31.6565 28.8516 33.2593 26.3471 32.8586C23.8426 32.4579 22.0394 30.254 22.0394 27.7495C22.0394 27.2486 22.1396 26.5474 22.3399 25.7459C23.5421 22.1395 27.1485 19.8354 30.9553 20.4365C34.9625 21.0375 37.7675 24.5438 37.6673 28.5509H37.7675C38.1682 23.4418 34.5618 18.8336 29.4526 18.0321Z" fill="#F2F8F9"/>
<path d="M47.8855 33.1592H8.31486C3.70664 33.1592 0 36.6655 0 41.1735C0 45.6816 3.60646 49.1879 8.31486 49.1879H47.8855C52.4937 49.1879 56.2003 45.6816 56.2003 41.1735C56.2003 36.7657 52.4937 33.1592 47.8855 33.1592Z" fill="#E9262A"/>
<path d="M47.8855 33.1592H8.31486C3.70664 33.1592 0 36.6655 0 41.1735C0 45.6816 3.60646 49.1879 8.31486 49.1879H47.8855C52.4937 49.1879 56.2003 45.6816 56.2003 41.1735C56.2003 36.7657 52.4937 33.1592 47.8855 33.1592ZM47.8855 47.7853H8.31486C4.60825 47.7853 1.70305 44.8802 1.70305 41.1735C1.70305 37.4669 4.60825 34.5617 8.31486 34.5617H47.8855C51.5921 34.5617 54.4973 37.4669 54.4973 41.1735C54.4973 44.8802 51.5921 47.7853 47.8855 47.7853Z" fill="#010101"/>
<path d="M9.71736 37.7675L11.1199 43.0769L12.4222 38.1682C12.5224 37.6673 12.6225 37.2666 12.7227 37.1664C12.8229 36.9661 12.9231 36.7657 13.1234 36.6655C13.3238 36.4652 13.5242 36.3649 13.8247 36.3649C14.1252 36.3649 14.4258 36.4652 14.6261 36.6655C14.8265 36.8659 14.9266 37.0662 15.0268 37.2666C15.127 37.4669 15.2272 37.7675 15.3274 38.2684L16.6297 43.1771L18.0322 37.8676C18.1324 37.4669 18.2326 37.1664 18.2326 37.0662C18.3327 36.8658 18.4329 36.7657 18.5331 36.6655C18.6333 36.5653 18.8336 36.4651 19.1342 36.4651C19.4347 36.4651 19.6351 36.5653 19.8354 36.7657C20.0358 36.966 20.136 37.1664 20.136 37.4669C20.136 37.6673 20.0358 38.068 19.9356 38.5689L18.2326 44.1789C18.0322 44.6798 17.932 44.9804 17.8319 45.1807C17.7317 45.3811 17.6315 45.5814 17.4311 45.7818C17.2308 45.9821 17.0304 46.0823 16.7299 46.0823C16.4293 46.0823 16.1288 45.9821 15.9285 45.7818C15.7281 45.5814 15.6279 45.381 15.5277 45.0805C15.4275 44.78 15.3274 44.4794 15.2272 44.0787L14.025 39.4705L12.8229 44.0787C12.6225 44.6798 12.5224 45.1807 12.322 45.4812C12.1217 45.7818 11.8211 45.9821 11.3202 45.9821C11.1199 45.9821 10.9195 45.9821 10.7191 45.7818C10.5188 45.6816 10.4186 45.5814 10.3184 45.381C10.2183 45.1807 10.1181 44.9804 10.0179 44.6798C9.9177 44.3793 9.81754 44.1789 9.81754 44.0787L8.11449 38.4687C7.91413 37.9678 7.81396 37.5671 7.81396 37.3667C7.81396 37.0662 7.91413 36.8659 8.11449 36.6655C8.31485 36.4652 8.51522 36.3649 8.81575 36.3649C9.21647 36.3649 9.41681 36.4652 9.51699 36.6655C9.41681 36.7657 9.517 37.1664 9.71736 37.7675Z" fill="#F2F8F9"/>
<path d="M38.0679 37.7675L39.4705 43.0769L40.7728 38.1682C40.873 37.6673 40.9731 37.2666 41.0733 37.1664C41.1735 36.9661 41.2737 36.7657 41.474 36.6655C41.6744 36.4652 41.8747 36.3649 42.1753 36.3649C42.4758 36.3649 42.7764 36.4652 42.9767 36.6655C43.1771 36.8659 43.2773 37.0662 43.3774 37.2666C43.4776 37.4669 43.5778 37.7675 43.678 38.2684L44.9803 43.1771L46.3828 37.8676C46.483 37.4669 46.5831 37.1664 46.5831 37.0662C46.6833 36.8658 46.7835 36.7657 46.8837 36.6655C46.9839 36.5653 47.1842 36.4651 47.4848 36.4651C47.7853 36.4651 47.9857 36.5653 48.186 36.7657C48.3864 36.966 48.4866 37.1664 48.4866 37.4669C48.4866 37.6673 48.3864 38.068 48.2862 38.5689L46.5831 44.1789C46.3828 44.6798 46.2826 44.9804 46.1824 45.1807C46.0823 45.3811 45.9821 45.5814 45.7817 45.7818C45.5814 45.9821 45.381 46.0823 45.0805 46.0823C44.7799 46.0823 44.4794 45.9821 44.279 45.7818C44.0787 45.5814 43.9785 45.381 43.8783 45.0805C43.7782 44.78 43.678 44.4794 43.5778 44.0787L42.3757 39.4705L41.1735 44.0787C40.9731 44.6798 40.873 45.1807 40.6726 45.4812C40.4722 45.7818 40.1717 45.9821 39.6708 45.9821C39.4705 45.9821 39.2701 45.9821 39.0697 45.7818C38.8694 45.6816 38.7692 45.5814 38.669 45.381C38.5688 45.1807 38.4687 44.9804 38.3685 44.6798C38.2683 44.3793 38.1681 44.1789 38.1681 44.0787L36.4651 38.4687C36.2647 37.9678 36.1646 37.5671 36.1646 37.3667C36.1646 37.0662 36.2647 36.8659 36.4651 36.6655C36.6655 36.4652 36.8658 36.3649 37.1663 36.3649C37.5671 36.3649 37.7674 36.4652 37.8676 36.6655C37.8676 36.7657 37.9678 37.1664 38.0679 37.7675Z" fill="#F2F8F9"/>
<path d="M23.9427 37.7675L25.3452 43.0769L26.6475 38.1682C26.7477 37.6673 26.8479 37.2666 26.9481 37.1664C27.0483 36.9661 27.1484 36.7657 27.3488 36.6655C27.5492 36.4652 27.7495 36.3649 28.05 36.3649C28.3506 36.3649 28.6511 36.4652 28.8515 36.6655C29.0518 36.8659 29.152 37.0662 29.2522 37.2666C29.3524 37.4669 29.4525 37.7675 29.5527 38.2684L30.8551 43.1771L32.2576 37.8676C32.3577 37.4669 32.4579 37.1664 32.4579 37.0662C32.5581 36.8658 32.6583 36.7657 32.7585 36.6655C32.8586 36.5653 33.059 36.4651 33.3595 36.4651C33.6601 36.4651 33.8604 36.5653 34.0608 36.7657C34.2611 36.966 34.3613 37.1664 34.3613 37.4669C34.3613 37.6673 34.2611 38.068 34.161 38.5689L32.4579 44.1789C32.2576 44.6798 32.1574 44.9804 32.0572 45.1807C31.957 45.3811 31.8568 45.5814 31.6565 45.7818C31.4561 45.9821 31.2558 46.0823 30.9552 46.0823C30.6547 46.0823 30.3542 45.9821 30.1538 45.7818C29.9534 45.5814 29.8533 45.381 29.7531 45.0805C29.6529 44.78 29.5527 44.4794 29.4526 44.0787L28.2504 39.4705L27.0482 44.0787C26.8479 44.6798 26.7477 45.1807 26.5474 45.4812C26.347 45.7818 26.0465 45.9821 25.5456 45.9821C25.3452 45.9821 25.1449 45.9821 24.9445 45.7818C24.7442 45.6816 24.644 45.5814 24.5438 45.381C24.4436 45.1807 24.3434 44.9804 24.2433 44.6798C24.1431 44.3793 24.0429 44.1789 24.0429 44.0787L22.3399 38.4687C22.1395 37.9678 22.0393 37.5671 22.0393 37.3667C22.0393 37.0662 22.1395 36.8659 22.3399 36.6655C22.5402 36.4652 22.7406 36.3649 23.0411 36.3649C23.4418 36.3649 23.6422 36.4652 23.7424 36.6655C23.6422 36.7657 23.7424 37.1664 23.9427 37.7675Z" fill="#F2F8F9"/>
</svg>
